<?xml version="1.0" encoding="UTF-8"?><svg xmlns="http://www.w3.org/2000/svg" viewBox="0 0 383.4 383.28"><g id="a"/><g id="b"><g id="c"><path d="M0,83.1c2.27-.97,4.54-2.77,6.82-2.78,56.64-.16,113.28-.13,169.92-.11,11.87,0,19.5,7.54,19.54,19.33,.06,16.46,.02,32.93,.02,49.39,0,1.36,0,2.71,0,4.46,1.56,.08,2.87,.21,4.18,.21,11.73,.02,23.46-.1,35.18,.07,4.42,.06,8.83,.76,13.61,1.2,0-2.07,.22-4.75-.05-7.39-.48-4.76-4.8-7.64-9.47-6.37-4.08,1.11-8.03,2.72-12.14,3.64-7.75,1.73-14.74-1.54-21.65-4.25-1.22-.48-2.2-3.57-1.97-5.28,.33-2.43,2.63-3.6,5.17-3.02,2.42,.54,4.8,1.33,7.14,2.18,5.03,1.82,9.89,1.55,14.97-.15,4.06-1.36,8.45-2.65,12.63-2.48,7.82,.31,13.75,6.73,14.59,14.55,.19,1.73,.2,3.49,.2,5.23,.01,23.45,0,46.9,0,70.35v5.16h4.85c32.19,0,64.38-.04,96.56,.05,4.42,.01,8.84,.73,13.94,1.18-.18-3.12,.04-6.83-.7-10.35-.84-3.98-5.3-6.35-9.37-5.58-1.46,.28-2.88,.79-4.28,1.31-7.59,2.81-15.13,2.73-22.62-.31-12.03-4.88-24.07-5.03-35.99,.16-10.42,4.54-20.3,1.84-30.1-1.86-2.39-.9-3.11-3.21-2.23-5.66,.88-2.46,2.86-3.5,5.35-2.94,2.67,.59,5.28,1.46,7.87,2.35,5.32,1.83,10.52,1.55,15.68-.61,14.03-5.87,28.14-5.89,42.23-.34,5.87,2.32,11.55,2.3,17.46,.13,14.46-5.29,25.99,2.84,25.99,18.2,0,51.14-.01,102.28,.05,153.42,0,2.93-.47,5.4-3.04,7.11H0c0-100.06,0-200.12,0-300.18ZM9.65,236.67v63.77c1.62,0,2.96,0,4.31,0,9.48,0,18.96-.02,28.45,.01,4.47,.01,6.64,1.67,6.55,4.84-.08,3.03-2.21,4.58-6.42,4.59-7.61,.02-15.22,0-22.83,0-3.33,0-6.66,0-10.09,0v63.64H124.66c0-1.83,0-3.31,0-4.8,0-12.72-.02-25.45,.01-38.17,.01-4.23,1.63-6.37,4.64-6.39,3.01-.01,4.69,2.19,4.7,6.31,.02,11.35,0,22.7,0,34.05,0,2.97,0,5.93,0,9.07h115v-63.72h-5.16c-57.89,0-115.78,0-173.67,0-6.85,0-7.93-1.1-7.93-8.09,0-20.33,0-40.66,0-61v-4.14H9.65Zm186.65,63.5h115.08v-63.66c-1.68,0-3.14,0-4.61,0-29.94,0-59.88,0-89.82,0-4.41,0-6.64-1.69-6.57-4.85,.07-3.02,2.21-4.61,6.42-4.62,9.48-.03,18.96,0,28.44-.02,1.31,0,2.61-.11,4.08-.18,0-17.64,0-34.85,0-52.05,0-8.8-2.87-11.72-11.59-11.72-33.19,0-66.37,0-99.56,0h-3.94v63.95c1.56,0,2.9,0,4.25,0,16.84,0,33.68,0,50.53,0,6.05,0,7.28,1.21,7.28,7.16,0,20.58,0,41.16,0,61.74v4.25Zm177.5,10.04h-114.79v63.38h114.79v-63.38ZM187.06,153.41v-4.08c0-16.08,0-32.17,0-48.25,0-8.4-3.06-11.43-11.55-11.43-33.17,0-66.35,0-99.52,0h-4.01v63.76h115.08ZM9.54,226.68H124.35v-63.36H9.54v63.36Zm177.32,10.04H72.06v63.46h114.79v-63.46ZM9.66,89.84v63.45H62.01v-63.45H9.66ZM321.29,236.55v63.63h52.68c0-1.72,0-3.18,0-4.65,0-14.45,.01-28.9,0-43.35,0-2.74,.07-5.5-.25-8.21-.48-4.07-3.66-7.32-7.7-7.36-14.8-.15-29.61-.06-44.72-.06Z"/><path d="M316.33,0c15.72,0,31.43-.02,47.15,0,12.3,.02,19.85,7.52,19.87,19.77,.03,14.46,.03,28.93,0,43.39-.02,11.82-7.46,19.58-19.3,19.63-31.8,.12-63.61,.12-95.41,0-11.84-.04-19.28-7.8-19.3-19.62-.02-14.59-.03-29.18,0-43.77,.03-11.76,7.67-19.38,19.47-19.41,15.84-.03,31.68,0,47.52,0Zm-.18,73.39c15.72,0,31.43,.01,47.15,0,7.3,0,10.63-3.16,10.66-10.38,.08-14.47,.08-28.93,0-43.4-.04-6.91-3.28-10.16-10.1-10.17-31.68-.05-63.37-.05-95.05,0-6.82,.01-10.06,3.28-10.09,10.18-.08,14.47-.07,28.93,0,43.4,.03,7.22,3.35,10.37,10.66,10.37,15.59,.01,31.18,0,46.78,0Z"/><path d="M24.45,342.54c-2.53,.1-4.98-2.16-4.83-4.66,.17-2.72,1.75-4.37,4.47-4.63,2.49-.23,4.98,2.15,4.83,4.65-.16,2.72-1.74,4.29-4.47,4.65Z"/><path d="M24.69,352.55c2.38,.18,3.95,1.74,4.21,4.43,.25,2.59-1.98,4.78-4.65,4.73-2.84-.06-4.35-1.72-4.62-4.4-.26-2.54,2.04-4.77,5.06-4.77Z"/><path d="M47.91,356.83c-.06,3.04-2.23,5.08-4.9,4.87-2.81-.22-4.25-1.87-4.29-4.64-.04-2.67,2.18-4.7,4.84-4.48,2.8,.24,4.11,1.97,4.35,4.25Z"/><path d="M283.08,355.44c.05,2.67-2,4.8-4.66,4.66-2.77-.14-4.33-1.68-4.46-4.47-.12-2.71,1.93-4.71,4.64-4.66,2.53,.04,4.44,1.95,4.49,4.47Z"/><path d="M168.29,129.78c-2.66,.07-4.93-2.04-4.75-4.64,.19-2.7,1.73-4.37,4.5-4.56,2.55-.18,4.8,2.11,4.78,4.68-.02,2.44-2.05,4.45-4.53,4.52Z"/><path d="M163.55,105.42c.57-2.67,2.21-4.18,4.95-4.11,2.53,.06,4.63,2.69,4.32,5.14-.31,2.52-2.9,4.5-5.35,4.1-2.4-.39-4.21-2.75-3.92-5.13Z"/><path d="M23.18,210.36c.22-2.32,1.73-3.91,4.47-4.1,2.65-.19,4.76,1.96,4.68,4.66-.09,2.83-1.74,4.33-4.43,4.56-2.57,.22-4.74-2.06-4.71-5.13Z"/><path d="M32.34,192.03c-.18,2.28-1.58,3.92-4.36,4.13-2.65,.19-4.78-1.89-4.8-4.54-.01-2.66,2.06-4.67,4.75-4.59,2.54,.08,4.39,1.99,4.41,5Z"/><path d="M175.46,270.48c-.12,2.88-1.71,4.42-4.4,4.71-2.52,.27-4.82-2.07-4.83-4.64,0-2.57,2.28-4.91,4.8-4.66,2.7,.27,4.26,1.85,4.42,4.59Z"/><path d="M151.73,246.67c2.81,.05,4.97,2.29,4.73,4.87-.25,2.77-1.95,4.26-4.65,4.38-2.57,.11-4.66-2.23-4.49-4.88,.18-2.84,1.91-4.14,4.41-4.37Z"/><path d="M171.03,246.64c2.71,.36,4.33,1.79,4.41,4.61,.07,2.64-2.18,4.9-4.73,4.66-2.69-.26-4.33-1.82-4.45-4.6-.11-2.58,2.18-4.75,4.77-4.67Z"/><path d="M357.62,246.63c2.74,.3,4.35,1.83,4.57,4.55,.2,2.48-2.25,4.91-4.74,4.74-2.75-.19-4.33-1.85-4.56-4.54-.22-2.51,2.18-4.79,4.73-4.75Z"/><path d="M340.34,28.87c-2.83-.3-4.43-1.84-4.65-4.56-.19-2.49,2.25-4.83,4.74-4.77,2.52,.06,4.85,2.48,4.56,4.95-.32,2.71-2,4.17-4.65,4.38Z"/><path d="M363.94,24.64c-.16,2.33-1.67,3.92-4.39,4.17-2.63,.25-4.8-1.9-4.75-4.58,.05-2.83,1.66-4.36,4.35-4.64,2.57-.26,4.77,1.97,4.79,5.05Z"/><path d="M359.46,38.9c2.65,.06,4.7,2.22,4.45,4.87-.26,2.76-1.89,4.24-4.66,4.25-2.67,.02-4.6-2.14-4.45-4.84,.14-2.51,2.14-4.34,4.66-4.28Z"/></g></g></svg>