<?xml version="1.0" encoding="UTF-8"?><svg xmlns="http://www.w3.org/2000/svg" viewBox="0 0 359.35 335.57"><g id="a"/><g id="b"><g id="c"><path d="M359.35,229.49c-1.45,1.65-2.83,3.37-4.38,4.93-12.63,12.67-25.31,25.28-37.91,37.99-2.12,2.14-4.41,3.21-7.43,3.2-28.29-.05-56.59-.03-84.88-.04-.91,0-1.82-.14-2.91-.23v-11.64h83.35c.08-1.62,.18-2.85,.18-4.08,.01-10.05,0-20.11,.01-30.16,.01-5.79,2-7.76,7.82-7.76,11.21-.02,22.42,0,33.9,0V47.98h-17.55v-12.07c2.63,0,5.26,0,7.9,0,4.44,0,8.89,.15,13.33-.05,3.7-.17,6.62,.87,8.57,4.13V229.49Zm-41.81,23.83c6.44-6.43,13.16-13.14,19.49-19.46h-19.49v19.46Z"/><path d="M47.85,36.01H251.28v11.87H47.85v4.93c0,59.31,0,118.61,0,177.92,0,7.32-1.5,8.82-8.82,8.82-4.8,0-9.59-.08-14.39,.02-7.35,.16-12.56,5.07-12.67,11.8-.11,6.88,5.08,12.04,12.64,12.16,10.17,.15,20.35,.04,30.53,.05,1.39,0,2.77,0,4.42,0v11.81c-1.17,.07-2.2,.18-3.22,.18-10.29,.01-20.59,.07-30.88,0C9.99,275.44,.01,265.39,0,250,0,175.25,0,100.5,0,25.76,0,10.11,10.02,.07,25.62,.02c4.91-.02,9.83-.03,14.74,0,5.39,.03,7.46,2.06,7.48,7.39,.04,8.19,.01,16.38,.01,24.56,0,1.15,0,2.29,0,4.03Zm-12.12-24.03c-3.28,0-6.29,0-9.31,0-10.05,.01-14.46,4.46-14.46,14.6,0,66.64,0,133.28,0,199.92v2.86c8.04-.84,15.82-1.66,23.77-2.49V11.97Z"/><path d="M164.49,335.44c-28.06,0-56.13,0-84.19,0-6.63,0-8.48-1.87-8.48-8.6,0-56.24,0-112.49,0-168.73,0-.93-.28-2.06,.14-2.77,1.06-1.81,2.12-4.24,3.79-4.9,1.66-.66,4.1,.4,6.11,.99,.79,.23,1.37,1.23,2.03,1.89,56.64,56.64,113.28,113.27,169.91,169.91,.74,.74,1.85,1.4,2.11,2.29,.58,2,1.53,4.46,.84,6.1-.7,1.66-3.1,2.75-4.96,3.7-.93,.48-2.3,.12-3.47,.12-27.95,0-55.89,0-83.84,0Zm71.41-12.13c-50.68-50.68-101.27-101.27-151.84-151.84v151.84H235.9Z"/><path d="M317.34,102.11c0,31.11,0,62.21,0,93.32,0,6.4-1.74,8.17-8.04,8.18-12.75,.01-25.49,.02-38.24,0-5.57,0-7.58-2-7.58-7.66-.02-62.68-.02-125.36,0-188.04,0-5.84,2.04-7.88,7.76-7.89,12.63-.02,25.26-.01,37.89,0,6.41,0,8.21,1.85,8.21,8.43,0,31.22,0,62.45,0,93.67Zm-30.09-6.2v12.07h-11.5v11.9h11.46v12.04h-11.43v11.95h11.43v11.99h-11.45v11.91h11.48v11.98h-11.49v11.59h29.4V12.27h-29.43v11.68h11.52v12.04h-11.47v12.02h11.51v11.88c-3.2,0-6.22-.15-9.21,.09-.9,.07-2.4,1.15-2.46,1.87-.27,3.21-.12,6.45-.12,10.19h11.71v11.95h-11.39v11.94h11.43Z"/><path d="M239.49,160.71c0,21.51-.05,43.03,.06,64.54,.02,3.41-.88,6.05-3.43,8.37-3.28,2.99-6.28,6.28-9.47,9.38-3.58,3.47-6.51,3.49-10.02,.06-3.51-3.43-7.14-6.77-10.34-10.49-1.4-1.62-2.59-4.06-2.6-6.14-.15-43.38-.14-86.76-.09-130.14,.01-10.47,8-18.44,18.08-18.39,10.01,.05,17.72,7.81,17.77,18.26,.1,21.51,.03,43.03,.03,64.54Zm-23.94-46.82v4.43c0,33.29,.16,66.59-.15,99.88-.05,5.68,1.64,9.56,6.19,12.53,3.99-2.72,6.13-5.98,6.08-11.43-.3-33.76-.15-67.52-.15-101.28,0-1.34,0-2.68,0-4.13h-11.97Zm11.98-12.24c-.33-4.18,1.43-8.78-3.25-10.88-1.73-.78-4.78-.45-6.35,.64-3.6,2.51-2.28,6.56-2.21,10.24h11.8Z"/><path d="M151.2,125.74c-6.42,0-12.85,.08-19.27-.02-13.74-.2-24.07-10.51-24.05-23.92,.02-13.37,10.47-23.79,24.13-23.89,13.43-.09,26.86-.04,40.29-.01,5.25,0,7.36,2.16,7.37,7.52,.02,10.98,.03,21.96,0,32.93-.01,5.34-2.06,7.36-7.45,7.39-7.01,.03-14.01,0-21.02,0Zm-7.27-12.26h23.59v-23.41h-23.59v23.41Zm-12.29-23.34c-6.95,.02-11.93,5.21-11.76,12.09,.16,6.56,5.4,11.62,11.76,11.2v-23.29Z"/><path d="M143.67,305.42c-11.34,0-22.68,.01-34.02,0-5.88-.01-7.85-1.95-7.85-7.71-.01-22.8,.02-45.6-.03-68.4,0-3.17,.66-5.91,3.83-7.18,3.18-1.28,5.54,.31,7.75,2.53,23.04,23.09,46.1,46.16,69.2,69.19,2.34,2.33,3.89,4.79,2.49,8.08-1.37,3.21-4.25,3.54-7.35,3.53-11.34-.06-22.68-.03-34.02-.03Zm-29.74-12.23h49.35c-16.32-16.34-33.01-33.05-49.35-49.42v49.42Z"/></g></g></svg>