<?xml version="1.0" encoding="UTF-8"?><svg xmlns="http://www.w3.org/2000/svg" viewBox="0 0 408.86 341.97"><defs><style>.d{fill:#fff;}</style></defs><g id="a"/><g id="b"><g id="c"><path class="d" d="M0,213.38v-24.76c1.85,2.89,4.21,5.04,7.89,3.77,3.64-1.25,4.22-4.39,4.11-7.82-.09-2.79-.02-5.59-.02-8.39,0-7.33,1.03-8.38,8.2-8.38,74.39,0,148.79,0,223.18,0,7.41,0,8.31,.88,8.31,8.23,0,48.45,0,96.9,0,145.35,0,7.16-1.16,8.34-8.31,8.34-74.39,0-148.79,0-223.18,0-6.93,0-8.2-1.26-8.2-8.08,0-34.61-.01-69.22,.02-103.82,0-3.37-.33-6.47-3.99-7.9-3.78-1.48-5.93,.94-8.01,3.46Zm112.7,58.81c0,3.99-.1,7.98,.02,11.97,.36,11.49,8.47,19.69,19.29,19.62,10.84-.08,18.8-8.41,18.91-19.93,.07-7.71-.12-15.43,.12-23.14,.05-1.69,1.04-3.75,2.28-4.95,8.28-8,12.31-17.44,10.68-29.05-1.93-13.75-12.39-25-25.74-27.57-13.2-2.55-27.38,3.62-34.03,14.79-7.37,12.39-6.92,27.72,2.73,37.75,5.04,5.23,6.4,10.4,5.76,16.92-.12,1.19-.02,2.39,0,3.59Z"/><path d="M0,213.38c2.08-2.52,4.23-4.94,8.01-3.46,3.66,1.43,3.99,4.53,3.99,7.9-.03,34.61-.02,69.22-.02,103.82,0,6.82,1.27,8.08,8.2,8.08,74.39,0,148.79,0,223.18,0,7.14,0,8.31-1.18,8.31-8.34,0-48.45,0-96.9,0-145.35,0-7.35-.9-8.23-8.31-8.23-74.39,0-148.79,0-223.18,0-7.18,0-8.2,1.05-8.2,8.38,0,2.8-.07,5.59,.02,8.39,.11,3.43-.47,6.57-4.11,7.82-3.67,1.27-6.03-.88-7.89-3.77v-19.17c3.39-10.17,10.55-14.5,21.08-13.65,1.04,.08,2.09,.01,3.69,.01,0-1.8-.01-3.34,0-4.88,.18-17.69-.97-35.53,.83-53.06C30.05,54.66,52.92,23.67,93.36,8.07,135.62-8.23,174.41,.53,207.12,31.75c21.69,20.7,31.75,47.06,31.75,77.13,0,15.43,0,30.85,0,46.94,2.68,0,5.15-.05,7.61,0,10.05,.24,17.1,7.1,17.12,17.19,.09,50.44,.08,100.88,0,151.32-.01,9.67-6.19,16.14-15.88,17.18-1.71,.18-3.45,.18-5.18,.18-73.58,0-147.17-.09-220.75,.12-10.5,.03-18.04-3.24-21.8-13.42v-115.02Zm194.48-57.77c0-17.9,1.04-35.38-.21-52.71-2.7-37.36-35.24-62.62-72.4-57.33-28.02,3.99-51.16,28.75-52.43,57.05-.76,16.99-.36,34.04-.45,51.06,0,.63,.26,1.25,.41,1.92h125.08Zm32.41,.04c0-15.71,0-31.01,0-46.3,.01-29.32-10.88-53.75-32.62-73.45-28.89-26.19-75.93-31.07-109.34-10.95-31.79,19.13-47.74,47.49-48.16,84.54-.16,13.97-.03,27.95-.03,41.93,0,1.4,0,2.79,0,4.08h20.22c0-1.9,0-3.49,0-5.08,.11-15.84-.27-31.69,.45-47.5,1.67-36.53,31.35-66.92,67.69-69.94,41.75-3.47,78.02,26.95,81.07,68.84,1.19,16.29,.44,32.72,.57,49.09,.01,1.54,0,3.08,0,4.74h20.14Z"/><path d="M348.99,211.01c9.4,0,18.42,0,27.43,0,3.06,0,6.12-.03,9.18,0,13.39,.14,23.17,9.29,23.26,21.73,.08,12.37-9.64,21.77-23.02,21.98-11.04,.17-22.09,.04-33.14,.04-1.05,0-2.1,0-3.43,0v12.27c1.3,0,2.69,0,4.08,0,10.78,0,21.56-.12,32.34,.03,16.68,.23,27.22,14.75,21.67,29.63-3.21,8.6-11.14,13.97-21.21,14.07-10.78,.11-21.56,.03-32.34,.03-1.44,0-2.88,0-4.88,0,0,2.36,.11,4.44-.02,6.51-.82,13.07-10.35,23.17-23.08,24.53-12.63,1.35-24.9-6.56-27.27-19.41-1.64-8.89-.89-18.25-.79-27.4,.04-3.36,2.67-5.17,6.08-4.94,3.44,.23,5.32,2.43,5.4,5.79,.17,6.65-.09,13.32,.19,19.96,.44,10.31,9.25,16.6,18.38,13.36,5.25-1.86,8.86-6.66,9.13-12.41,.15-3.32,.04-6.65,.06-9.98,.05-5.92,2.03-7.97,7.88-7.99,13.58-.03,27.16,.2,40.72-.18,2.99-.08,6.4-1.69,8.76-3.63,2.8-2.3,3.35-5.99,1.79-9.54-1.76-4.01-4.89-6.3-9.29-6.4-5.99-.14-11.98-.05-17.97-.06-8.25,0-16.5,.05-24.76-.03-4.93-.05-7.06-2.17-7.12-7.08-.08-7.19-.06-14.38-.01-21.57,.04-5.42,2.09-7.53,7.47-7.55,13.44-.05,26.89,.03,40.33-.08,2.2-.02,4.58-.35,6.55-1.24,4.13-1.88,6.25-6.52,5.34-10.57-1.03-4.57-5.13-7.86-10.23-7.89-13.31-.07-26.62-.03-39.93-.03-8.03,0-9.53-1.51-9.53-9.54,0-28.89,.17-57.78-.13-86.66-.06-6.16,2.12-9.22,7.65-11.73,21.22-9.61,32.33-26.55,32.3-49.71-.02-22.27-10.98-38.83-31.02-48.16-20.41-9.5-40.23-6.68-57.43,7.93-30.51,25.91-23.26,73.94,13.41,89.92,5.58,2.43,7.73,5.5,7.7,11.66-.23,45.53-.12,91.06-.14,136.58,0,1.73,.02,3.48-.24,5.17-.47,3.03-2.39,4.71-5.43,4.84-3.02,.13-5.17-1.35-5.85-4.33-.41-1.79-.44-3.69-.44-5.54-.02-44.2-.05-88.39,.05-132.59,0-3.23-.95-4.88-3.89-6.38-26.06-13.28-40.62-42.08-35.28-69.35,5.99-30.56,29.62-52.24,59.82-54.88,33.88-2.96,65.5,22.19,70.08,55.74,3.98,29.12-9.57,55.25-35.81,68.72-2.63,1.35-3.48,2.84-3.47,5.77,.13,25.43,.07,50.85,.07,76.28,0,1.29,0,2.59,0,4.27Z"/><path d="M359.56,64.16c1.51,19.26-13.96,36.67-33.9,38.13-20.13,1.47-37.35-13.77-38.88-34.42-1.38-18.66,13.83-36.69,32.19-38.15,22.02-1.75,38.87,12.55,40.59,34.45Zm-36.53-22.76c-13.58,.13-24.51,11.25-24.36,24.79,.15,13.53,11.35,24.41,24.92,24.22,13.39-.19,24.23-11.21,24.15-24.58-.08-13.58-11.17-24.55-24.71-24.43Z"/><path d="M112.7,272.18c0-1.2-.11-2.4,.01-3.59,.65-6.53-.72-11.69-5.76-16.92-9.65-10.03-10.1-25.36-2.73-37.75,6.65-11.18,20.83-17.34,34.03-14.79,13.35,2.58,23.82,13.82,25.74,27.57,1.63,11.62-2.4,21.05-10.68,29.05-1.23,1.19-2.22,3.25-2.28,4.95-.24,7.71-.05,15.42-.12,23.14-.11,11.52-8.07,19.85-18.91,19.93-10.82,.08-18.93-8.13-19.29-19.62-.12-3.99-.02-7.98-.02-11.97Zm11.98-2.8c0,4.52,0,9.04,0,13.56,0,.13,0,.27,0,.4,.19,5.29,2.76,8.35,7.07,8.4,4.5,.06,7.16-3.06,7.19-8.6,.05-8.24,.29-16.49-.09-24.72-.23-5.09,1.52-8.34,5.61-11.35,6.67-4.9,9.12-11.97,7.48-20.08-1.67-8.3-6.91-13.77-15.08-15.79-8.13-2.01-15.31,.24-20.78,6.74-7.67,9.13-6.14,22.49,3.59,29.51,3.77,2.72,5.44,5.76,5.06,10.37-.32,3.83-.06,7.7-.06,11.56Z"/><path class="d" d="M194.48,155.61H69.4c-.15-.67-.42-1.29-.41-1.92,.09-17.02-.32-34.07,.45-51.06,1.27-28.31,24.41-53.06,52.43-57.05,37.17-5.29,69.7,19.97,72.4,57.33,1.25,17.32,.21,34.81,.21,52.71Z"/></g></g></svg>