<?xml version="1.0" encoding="UTF-8"?><svg xmlns="http://www.w3.org/2000/svg" viewBox="0 0 339.41 383.25"><g id="a"/><g id="b"><g id="c"><path d="M168.19,383.25c-5.21-2.24-10.91-3.76-15.52-6.87-8.75-5.9-13.54-14.68-13.74-25.31-.32-17.09-.17-34.18-.18-51.27-.02-27.07-.01-54.14,0-81.22,0-5.47,1.07-6.72,6.85-7.91,0-6.23-.02-12.56,0-18.89,.02-5.8,1.79-7.56,7.59-7.58,4.48-.02,8.96,0,13.96,0,0-5.7,0-11.15,0-16.6,.01-14.07,5.61-20.88,19.46-23.33,43.68-7.71,87.37-15.36,131.06-23,8.07-1.41,10.4-4.07,10.41-12.25,.01-12.6,.02-25.2,0-37.8-.01-8.59-3.1-11.62-11.79-11.66-1.98,0-3.97,0-6.54,0,0,1.63,0,2.94,0,4.26,0,7.86,.08,15.72-.03,23.58-.16,11.72-8.74,20.35-20.37,20.4-18.09,.08-36.18,.03-54.27,.01-4.33,0-6.95-2.18-6.92-5.62,.03-3.42,2.65-5.58,6.99-5.59,17.34-.02,34.68,0,52.02-.01,8.19,0,11.31-3.11,11.32-11.27,.01-20.96,.01-41.92,0-62.88,0-7.97-3.18-11.2-11.03-11.21-31.06-.01-62.13,0-93.19,0h-3.77c0,1.61,0,2.94,0,4.26,0,15.47,.1,30.94-.03,46.41-.15,17.51-17.54,28.4-32.56,20.4-7.99-4.25-11.75-11.22-11.96-20.17-.09-4.11,.09-8.24-.09-12.35-.26-6.1-4.98-10.68-10.81-10.71-5.74-.04-10.9,4.63-10.97,10.59-.17,15.45-.06,30.91-.06,46.93h4.49c26.7,0,53.4,0,80.09,0,1.24,0,2.54-.13,3.72,.17,2.86,.71,4.57,2.56,4.47,5.62-.1,3.03-1.86,4.81-4.78,5.35-1.09,.2-2.24,.08-3.36,.08-26.7,0-53.4,0-80.09,0h-4.37c-.07,1.44-.18,2.64-.19,3.85-.02,8.23,.1,16.47-.05,24.7-.22,11.99-9.94,21.53-21.83,21.65-12.21,.12-22.08-9.16-22.41-21.36-.22-8.1-.07-16.22-.08-24.33,0-1.35,0-2.7,0-4.5-4.05,0-7.75,0-11.45,0-7.98,0-15.97,.01-23.95,0-12.9-.02-20.97-7.62-21.87-20.56-.04-.61-.12-1.22-.23-2.35-4.89,0-9.71,.04-14.53,0-5.86-.06-7.61-1.8-7.63-7.63-.03-15.59-.03-31.19,0-46.78,.01-5.69,1.76-7.43,7.34-7.46,4.84-.03,9.69,0,14.71,0,.28-2.26,.46-4.21,.78-6.14C24.42,7.39,32.42,.39,42.03,.03c.75-.03,1.5-.02,2.25-.02,81.34,0,162.68,0,244.02,0,11.47,0,20.43,7.47,21.32,17.87,.31,3.59,.14,7.23,.15,10.85,.02,6.35,0,12.7,0,19.61,2.84,0,5.42-.02,8,0,13.13,.14,21.48,8.43,21.57,21.59,.09,13.6,.09,27.2,0,40.79-.08,11.5-6.4,19.18-17.66,21.17-39.63,7.02-79.28,13.92-118.92,20.87-5.52,.97-11.05,1.91-16.56,2.95-4.21,.8-7.33,3.45-7.5,7.24-.31,6.93-.09,13.89-.09,21.25,4.41,0,8.62,0,12.83,0,6.98,0,8.46,1.51,8.48,8.62,.02,5.61,.03,11.23,.06,16.84,0,.24,.11,.48,.17,.72,6.25,2.27,6.7,2.9,6.7,9.65,0,19.84,0,39.67-.01,59.51,0,1.49-.02,3.02-.38,4.45-.7,2.77-2.74,4.21-5.52,4.08-2.76-.13-4.67-1.7-5.15-4.54-.23-1.34-.19-2.73-.2-4.1-.01-17.47,0-34.93,0-52.4,0-1.47,0-2.94,0-4.53h-45.4c-.07,1.4-.17,2.61-.17,3.83,0,40.55-.04,81.09,.01,121.64,.02,14.21,10.09,24.42,23.47,24.04,11.11-.32,21.01-8.84,21.64-19.94,.72-12.69,.34-25.43,.44-38.15,.02-2.87-.08-5.74,.05-8.61,.17-3.62,2.34-5.83,5.49-5.86,3.15-.03,5.53,2.15,5.64,5.74,.19,6.23,.1,12.47,.08,18.71-.03,9.11,.31,18.24-.26,27.31-1.04,16.43-11.74,28.13-28.04,31.51-.47,.1-.91,.37-1.37,.56h-8.98ZM79.68,11.23c-12.24,0-23.96-.04-35.67,.01-6.64,.03-10.29,3.49-10.32,10.1-.08,21.7-.08,43.4,0,65.1,.02,6.65,3.64,10.1,10.27,10.13,10.97,.04,21.95,.02,32.92,0,.83,0,1.66-.14,2.79-.25,0-1.59,0-2.94,0-4.28,0-8.73-.05-17.46,.03-26.19,.03-3.95,2.1-6.15,5.47-6.19,3.31-.04,5.48,2.22,5.73,6.04,.07,.99,.02,1.99,.02,2.99,0,21.95,.04,43.9-.03,65.85-.01,4.61,1.41,8.34,5.47,10.72,7.64,4.48,16.4-1.05,16.42-10.42,.04-27.56-.01-55.12,.06-82.69,0-2.84,.21-5.78,.97-8.49,2.79-9.95,13.12-16.88,23.12-15.77,11.15,1.23,19.51,9.68,20.14,20.61,.27,4.6,0,9.23,.19,13.84,.31,7.55,6.27,12.42,13.29,11.01,5.31-1.07,8.69-5.59,8.71-11.91,.04-15.71,.02-31.43,0-47.14,0-.95-.17-1.91-.27-2.9H90.93c0,5.75,0,11.32,0,16.89,0,4.74,.12,9.48-.07,14.22-.14,3.54-2.54,5.74-5.68,5.7-3.19-.04-5.27-2.23-5.46-5.84-.07-1.37-.03-2.74-.03-4.11,0-8.83,0-17.67,0-27.03Zm108.64,199.6v-15.15h-31.23v15.15h31.23ZM11.53,34.36v38.99h10.57V34.36H11.53Z"/></g></g></svg>