<?xml version="1.0" encoding="UTF-8"?><svg xmlns="http://www.w3.org/2000/svg" viewBox="0 0 371.17 370.93"><g id="a"/><g id="b"><g id="c"><path d="M299.15,275.54h-22.37c-2.3,3.43-3.7,7.35-6.48,9.16-2.96,1.92-7.2,1.97-10.92,2.59-1.82,.3-3.73,.05-5.6,.05-8.83,0-12.62-3.04-14.64-11.83h-106.02c-2.41,3.51-4.04,7.09-6.72,9.5-4.09,3.68-21.3,3.68-25.42,.03-2.63-2.33-4.26-5.78-6.87-9.49h-10.2v22.34c3.43,2.3,7.35,3.69,9.15,6.47,1.92,2.96,1.97,7.2,2.59,10.92,.3,1.82,.05,3.73,.05,5.6,0,8.84-3.02,12.61-11.98,14.68v35.33H23.96v-35.22c-9.43-2.44-12.09-5.92-12.09-15.45,0-2.37,0-4.74,0-7.11,.02-8.26,3.34-12.26,11.98-14.04,0-1.23,0-2.56,0-3.88,0-12.23-.04-24.45,0-36.68,.09-24.75,18.28-42.93,43.04-43.03,9.47-.04,18.94,0,28.35,0,2.67-9.55,5.91-11.98,15.77-11.98,1.87,0,3.74,0,5.61,0,9.53,0,12.97,2.63,15.38,11.85h29.32v-23.84c-7.45,.48-14.54-.3-19.62-6.62-2.85-3.54-4.23-7.58-4.05-12.13,.41-10.82,7.52-16.09,23.74-17.39,.64-7.82,3.64-14.54,10.28-19.25,4.64-3.3,9.83-4.76,15.51-4.42,12.14,.74,20.82,9.83,22.49,23.9,1.9,0,3.86-.04,5.82,0,10.02,.22,17.88,8.03,17.93,17.83,.06,9.96-7.85,17.88-18.07,18.08-1.84,.04-3.67,0-5.69,0v23.69h29.37c2.6-9.28,5.83-11.71,15.7-11.71,1.87,0,3.74,0,5.61,0,9.53,0,12.97,2.63,15.38,11.85h23.33v-11.5c-9.11-2.44-11.72-5.85-11.72-15.35,0-1.87,0-3.74,0-5.61,0-9.89,2.44-13.15,11.85-15.74v-59.23h-11.53c-2.25,8.93-5.83,11.74-14.99,11.74-2.37,0-4.74,0-7.11,0-8.58-.01-12.59-3.25-14.35-11.78h-35.35c-2.55,9.3-5.86,11.78-15.73,11.78-1.75,0-3.49,0-5.24,0-9.87,0-13.19-2.49-15.78-11.97-9.16,0-18.38-.1-27.59,.13-1.11,.03-2.63,1.57-3.21,2.78-7.67,15.93-19.26,28.03-34.91,36.26C65.79,171.91,6.59,140.59,.53,87.13-4.98,38.62,33.44-2.8,82.16,.15c30.19,1.83,52.16,17.33,65.81,44.35,1.23,2.44,2.46,3.45,5.27,3.39,8.59-.21,17.2-.07,24.77-.07,2.4-3.61,3.78-7.54,6.55-9.35,2.96-1.93,7.2-1.96,10.93-2.58,1.82-.3,3.73-.05,5.6-.05,8.87,0,12.65,3.03,14.64,11.83h34.27c2.23-3.4,3.73-6.93,6.29-9.29,4.17-3.83,21.46-4,25.74-.26,2.64,2.31,4.27,5.77,7.04,9.7,8.38,0,18.34-.1,28.29,.02,19.73,.23,36.05,13.2,40.6,32.38,.88,3.72,1.16,7.65,1.17,11.48,.1,23.83,.05,47.65,.05,71.48v4.01c9.29,2.35,11.97,5.87,11.98,15.42,0,2.25,0,4.49,0,6.74-.01,8.6-3.22,12.56-11.77,14.36v95.22c9.31,2.58,11.77,5.87,11.77,15.73,0,1.75,0,3.49,0,5.24,0,9.89-2.48,13.21-11.98,15.79v35.26h-59.76v-35.02c-2.41-.97-4.72-1.56-6.66-2.75-3.38-2.08-5.27-5.31-5.39-9.33-.13-4.36-.17-8.74,0-13.1,.25-6.2,4.22-10.06,11.77-11.65v-23.55ZM77.89,11.88c-36.37-.05-65.99,29.47-66.02,65.8-.03,36.19,29.41,65.8,65.53,65.93,36.37,.13,66.12-29.35,66.21-65.63,.09-36.37-29.42-66.05-65.72-66.11ZM347.02,167.39c.08-.72,.18-1.19,.18-1.67,0-25.56,.15-51.12-.06-76.67-.13-15.99-13.17-28.88-29.14-29.22-7.98-.17-15.96-.04-23.94-.05-2.19,0-4.38,0-6.55,0v35.93c3.5,0,6.84,0,10.17,0,8.91,.03,13.59,4.7,13.6,13.62,.02,17.95,0,35.9,0,53.86,0,1.34,0,2.67,0,4.19h35.74Zm-215.39,95.73h107.48v-35.47h-107.34c-.05,.78-.13,1.37-.13,1.97,0,11.08,0,22.16,0,33.5Zm-36.01-35.51c-11.27,0-22.26-.67-33.14,.16-14.45,1.1-26,13.18-26.49,27.38-.5,14.44-.1,28.91-.07,43.37,0,.19,.26,.39,.34,.49h35.3c.08-.54,.15-.79,.15-1.03,.01-7.1,0-14.21,.03-21.31,.03-8.38,4.86-13.24,13.18-13.28,3.55-.02,7.11,0,10.7,0v-35.78Zm251.31,71.54v-95.34h-35.46v95.34h35.46ZM251.11,95.57V59.98h-35.41v35.6h35.41Zm-97.61-.13h25.87V60.02h-25.91c2.85,11.95,2.76,23.68,.04,35.42Zm122.02,167.67h23.49v-35.46h-23.49v35.46ZM35.9,358.96h35.58v-23.41H35.9v23.41Zm311.07,.05v-23.49h-35.51v23.49h35.51ZM185.15,179.55c9.6,0,19.21,.02,28.81,0,4.71-.01,7.46-2.26,7.46-5.98,0-3.73-2.74-5.97-7.46-5.98-18.96-.02-37.92-.02-56.88,0-4.72,0-7.45,2.24-7.46,5.98,0,3.73,2.74,5.97,7.46,5.98,9.36,.03,18.71,0,28.07,0Zm6.63-131.58v59.41h11.52V47.97h-11.52Zm71.85,.01v59.41h11.54V47.98h-11.54ZM119.47,275.19v-59.48h-11.53v59.48h11.53Zm132.13-59.54v59.47h11.52v-59.47h-11.52Zm107.43-35.84h-59.54v11.51h59.54v-11.51ZM24.07,311.47v11.55h59.37v-11.55H24.07Zm275.41,11.53h59.41v-11.51h-59.41v11.51Zm-102.13-131.21h-23.49v23.49h23.49v-23.49Zm-.02-36.39c-.41-7.16-5.75-12.12-12.46-11.76-6.32,.34-11.13,5.47-10.97,11.76h23.43Z"/><path d="M41.06,93.93c.95-3.54,1.6-7.19,2.91-10.59,6.18-16.02,12.53-31.98,18.84-47.95,2.99-7.58,8.08-11.5,14.89-11.51,6.83-.01,11.97,3.9,14.95,11.43,6.13,15.51,12.37,30.97,18.32,46.55,7.79,20.38-2.62,42.06-22.96,48.27-23.41,7.15-46.13-10.55-46.94-36.2Zm12.27,.66c.54,16.7,14.57,28.12,30.19,24.33,14.17-3.44,21.77-18.47,16.3-32.69-5.98-15.56-12.16-31.04-18.42-46.49-.59-1.46-2.6-3.59-3.54-3.4-1.51,.31-3.25,2.06-3.88,3.62-6.4,15.79-12.64,31.65-18.82,47.53-.88,2.26-1.24,4.73-1.84,7.1Z"/><path d="M323.44,95.86h11.56v11.62h-11.56v-11.62Z"/><path d="M323.53,119.83h11.5v11.51h-11.5v-11.51Z"/><path d="M323.47,143.8h11.49v11.56h-11.49v-11.56Z"/><path d="M143.78,251.21v-11.51h11.58v11.51h-11.58Z"/><path d="M167.7,251.11v-11.45h11.64v11.45h-11.64Z"/><path d="M203.23,251.24h-11.52v-11.51h11.52v11.51Z"/><path d="M323.54,227.61h11.49v11.65h-11.49v-11.65Z"/><path d="M335.05,251.63v11.47h-11.54v-11.47h11.54Z"/><path d="M335.05,287.18h-11.53v-11.6h11.53v11.6Z"/></g></g></svg>