<?xml version="1.0" encoding="UTF-8"?><svg xmlns="http://www.w3.org/2000/svg" viewBox="0 0 382.95 383.41"><g id="a"/><g id="b"><g id="c"><path d="M0,311.55c2.06-9.91,8.69-16.29,16.28-22.34,26.92-21.45,53.57-43.25,80.4-64.81,2.11-1.69,2.86-3.03,2.04-5.81-1.86-6.34-.16-12.09,4.25-16.96,2.09-2.31,4.52-4.32,6.57-6.66,5.44-6.2,12.03-9.13,20.68-7.25,.84-2.98,1.63-5.81,2.45-8.64,9.05-31,22.75-59.79,41.28-86.25,6.72-9.6,13.56-19.12,20.33-28.69,1.56-2.21,3.68-3.94,6.26-2.78,1.78,.8,3.69,2.74,4.19,4.54,.42,1.52-.75,3.82-1.82,5.36-5.73,8.32-11.61,16.53-17.49,24.74-20.68,28.9-35.5,60.52-44.35,94.95-.7,2.74-.36,4.53,1.76,6.52,5.45,5.12,10.66,10.51,15.92,15.83,3.21,3.25,3.55,6.29,1.12,8.86-2.5,2.64-5.77,2.33-9.1-.98-6.55-6.5-13.05-13.06-19.6-19.57-4.55-4.52-7.85-4.48-12.47,.1-2.31,2.28-4.64,4.54-6.87,6.89-3.54,3.72-3.63,7.26-.07,10.83,17.34,17.41,34.72,34.79,52.14,52.13,3.58,3.57,7.13,3.53,10.84,0,2.71-2.58,5.38-5.21,7.93-7.95,3.27-3.49,3.24-7.11-.09-10.6-3.36-3.52-6.86-6.9-10.3-10.34-3.78-3.79-4.4-7.05-1.85-9.67,2.58-2.65,5.94-2.1,9.66,1.6,2.03,2.02,4.19,3.94,6.05,6.12,1.67,1.96,3.4,2.34,5.87,1.7,32.77-8.49,63.25-22.05,90.99-41.49,26.96-18.89,53.74-38.04,80.55-57.13,10.47-7.45,11.48-19.47,2.44-28.53-32.62-32.66-65.25-65.3-97.92-97.92-9.07-9.05-21.08-7.98-28.53,2.44-6.16,8.63-12.28,17.28-18.42,25.92-.65,.91-1.25,1.87-1.98,2.72-2.13,2.49-5.21,2.96-7.67,1.25-2.46-1.72-3.31-4.95-1.45-7.59,7.75-11.01,15.08-22.38,23.65-32.73,10.23-12.36,29.65-12.42,41.4-.85,15.02,14.79,29.85,29.78,44.76,44.69,17.82,17.82,35.29,36,53.57,53.34,14.23,13.5,12.22,36.08-3.93,47.09-28.94,19.74-57.08,40.66-85.99,60.43-26.13,17.86-54.92,30.24-85.53,38.36-.59,.16-1.17,.38-1.97,.65,.04,.87,.11,1.68,.11,2.5-.02,2.12,.2,4.28-.17,6.34-1.49,8.3-15.67,22.19-23.98,23.16-3.36,.39-6.86-.4-10.97-.69-7.28,8.99-15.03,18.57-22.78,28.16-3.61,4.46-7.19,8.94-10.83,13.38-3.18,3.88-6.37,4.63-9.2,2.23-2.76-2.35-2.65-5.4,.41-9.2,11.35-14.07,22.73-28.13,33.88-41.93-15.34-15.35-30.57-30.58-46.07-46.09-7.26,5.86-14.9,12.02-22.53,18.19-21.83,17.64-43.65,35.28-65.47,52.93-9.19,7.43-9.74,18.53-1.33,26.96,12.34,12.36,24.69,24.71,37.05,37.05,8.8,8.79,19.71,8.24,27.47-1.36,6.12-7.56,12.22-15.14,18.36-22.69,2.98-3.66,6.16-4.31,8.96-1.94,2.59,2.2,2.56,5.51-.2,8.94-6.33,7.88-12.78,15.65-19.02,23.6-4.62,5.89-10.88,8.86-17.84,10.78h-8.98c-8.55-1.79-14.75-7.1-20.62-13.21-9.49-9.86-19.18-19.53-29.03-29.04-6.09-5.88-11.48-12.05-13.22-20.63v-8.98Z"/></g></g></svg>