<?xml version="1.0" encoding="UTF-8"?><svg xmlns="http://www.w3.org/2000/svg" viewBox="0 0 363.98 383.36"><g id="a"/><g id="b"><g id="c"><path d="M62.22,383.36c-18.12-12.52-36.4-24.83-54.31-37.65-8.75-6.26-10.21-17.1-4.55-27.14,17.74-31.48,35.52-62.94,53.28-94.42,23.63-41.89,47.24-83.8,70.95-125.65,1.36-2.39,1.27-3.98-.11-6.34-4.12-7.04-4.21-14.45,.42-21.2,11.92-17.37,23.78-34.81,36.35-51.71,13.55-18.22,38.18-24.36,59.14-14.74,26.71,12.25,53.11,25.21,79.64,37.86,3.15,1.5,6.3,3,9.45,4.5,6.64,3.17,10.26,2.38,15.05-3.37,5.58-6.7,12.76-9.17,21.08-7.1,8.06,2,13.08,7.47,14.89,15.63,1.22,5.5,.19,10.74-3.02,15.34-11.82,16.99-23.55,34.05-35.7,50.8-7.72,10.65-18.54,16.74-31.52,19.09-1.64,.3-3.41,1.48-4.55,2.76-11.68,13.15-23.32,26.34-34.8,39.66-4.7,5.46-10.39,8.21-17.57,8.44-13.52,.44-15.4,2.65-14.61,16.31,.7,12.15-4.5,20.86-14.51,23.57-3.32,.9-6.89,1-10.36,1.17-8.34,.4-11.68,4.02-11.24,12.32,.18,3.36,.49,6.75,.21,10.07-.8,9.41-8.19,16.89-17.62,18.05-2.84,.35-5.72,.48-8.58,.65-6.7,.38-10.15,4.15-9.95,10.92,.11,3.85,.63,7.75,.24,11.55-1.02,9.91-8.96,17.28-18.92,18.02-2.86,.22-5.74,.28-8.58,.6-5.49,.63-8.7,4.27-8.61,9.85,.06,3.49,.69,6.98,.53,10.45-.51,11.43-8.85,19.52-20.54,20.19-2.61,.15-5.26,.07-7.83,.5-5.14,.85-8.05,4.45-8.07,9.63,0,1.37,.06,2.75,.18,4.11,.87,9.87-.98,13.13-9.88,17.27h-5.99Zm213.23-245.38c-9.59-4.37-18.9-8.48-28.07-12.89-2.56-1.23-3.84-.65-5.54,1.3-27.23,31.2-54.53,62.34-81.82,93.48-2.79,3.19-5.38,6.62-8.53,9.41-1.4,1.24-4.21,1.97-5.93,1.45-1.57-.47-3.37-2.87-3.52-4.57-.16-1.76,1.16-4,2.46-5.49,26.65-30.55,53.39-61.02,80.1-91.51,2.99-3.42,5.94-6.88,9.1-10.53-19.52-9.32-38.61-18.46-57.73-27.56-6.69-3.18-10.21-2.29-15.01,3.48-4.83,5.81-11.06,8.56-18.54,7.4-3.09-.48-4.31,.51-5.72,3.01-34.53,61.36-69.14,122.66-103.74,183.98-6.67,11.83-13.39,23.64-20.01,35.49-2.74,4.9-2.2,9.37,1.81,12.42,5.54,4.2,11.34,8.06,17.07,12.1,.88-.93,1.58-1.63,2.23-2.38,27.13-30.96,54.25-61.92,81.37-92.88,4.27-4.88,8.49-9.81,12.87-14.59,2.28-2.49,5.81-2.54,8.03-.45,2.11,1.99,2.27,5.21,.33,7.8-.67,.9-1.45,1.71-2.19,2.56-23.84,27.21-47.68,54.41-71.52,81.62-7.2,8.22-14.39,16.44-21.76,24.86,7.73,5.42,15.16,10.65,22.64,15.81,.62,.43,1.95,.79,2.3,.46,.61-.56,.99-1.67,.98-2.55-.02-2.36-.42-4.72-.44-7.09-.06-10.88,6.9-19.15,17.59-20.83,2.82-.44,5.71-.47,8.57-.63,7.13-.4,10.89-4.78,10.25-11.84-.27-2.98-.55-5.97-.48-8.96,.23-10.15,8-18.53,18.1-19.63,2.85-.31,5.72-.44,8.58-.63,6.51-.44,10.16-4.68,9.69-11.19-.23-3.23-.57-6.48-.48-9.71,.26-9.04,6.53-16.86,15.37-18.83,3.86-.86,7.92-.77,11.87-1.25,6.3-.77,9.44-4.64,9.07-11-.18-3.11-.54-6.23-.47-9.34,.23-10.13,7.07-18.05,17.09-19.73,3.06-.51,6.2-.49,9.31-.71,6.69-.48,10.2-4.36,9.91-11.03-.1-2.37-.34-4.73-.46-7.09-.65-12.13,7.14-21.24,19.2-22.41,2.48-.24,5.09,.06,7.44-.61,2.74-.79,5.63-1.93,7.76-3.73,2.92-2.46,5.21-5.69,7.75-8.6,7.79-8.9,15.58-17.81,23.12-26.42Zm12-11.36c9.72-.27,20.24-4.44,27.4-14.1,12.47-16.82,24.27-34.14,36.2-51.35,2.96-4.27,1.89-9.41-1.99-12.35-3.92-2.97-9.23-2.29-12.72,1.64-9.29,10.47-17.17,12.04-29.86,5.98-28.55-13.63-57.07-27.32-85.67-40.85-17.43-8.24-36.75-4.23-47.75,10.6-12.25,16.52-23.79,33.56-35.52,50.46-3.04,4.38-1.99,9.64,2.05,12.62,3.95,2.91,9.16,2.14,12.69-1.88,8.85-10.11,17.23-11.85,29.26-6.11,28.21,13.48,56.43,26.93,84.61,40.45,6.04,2.9,12.25,4.91,21.3,4.88Z"/><path d="M183.41,51.16c.04-15.43,13.55-25.54,25.96-20.35,15.37,6.43,30.24,14.05,45.27,21.3,2.94,1.42,3.75,4.63,2.41,7.34-1.45,2.93-4.49,3.92-7.99,2.28-8.8-4.1-17.54-8.34-26.3-12.52-4.94-2.36-9.87-4.76-14.83-7.07-5.37-2.5-10.19-1.1-12.44,3.51-2.23,4.58-.3,9.39,5.02,11.93,26.72,12.8,53.46,25.57,80.21,38.3,5.31,2.53,10.25,.97,12.38-3.66,2.09-4.54,.22-9.19-4.87-11.71-5.69-2.82-11.46-5.48-17.16-8.27-3.96-1.94-5.28-4.91-3.7-8.03,1.53-3.01,4.6-3.84,8.36-2.09,6.09,2.84,12.2,5.67,18.19,8.7,10.04,5.09,13.99,16.48,9.28,26.33-4.7,9.83-16.1,14.08-26.29,9.27-27.48-12.94-54.88-26.05-82.24-39.24-7.37-3.55-11.07-9.76-11.26-16.04Z"/></g></g></svg>