<?xml version="1.0" encoding="UTF-8"?><svg xmlns="http://www.w3.org/2000/svg" viewBox="0 0 408.79 288.79"><g id="a"/><g id="b"><g id="c"><path d="M0,158.93c2.53-2.23,4.78-4.91,7.62-6.63,36.29-21.92,72.67-43.69,109.02-65.51,1.24-.74,2.44-1.55,3.92-2.5-4.64-2.97-9.04-5.7-13.36-8.55-6.71-4.43-6.73-11.37,.07-15.71,30.36-19.39,60.78-38.68,91.14-58.06,4.05-2.59,7.81-2.65,11.87-.06,30.37,19.38,60.79,38.67,91.15,58.05,6.98,4.46,6.9,11.38-.06,15.94-4.22,2.76-8.5,5.44-13.11,8.38,1.56,1,2.83,1.86,4.15,2.65,36.35,21.82,72.7,43.64,109.05,65.46,1.25,.75,2.55,1.45,3.7,2.34,4.78,3.68,4.85,9.92,.11,13.63-1.56,1.22-3.33,2.19-5.03,3.23-62.78,38.22-125.59,76.39-188.29,114.73-5.34,3.27-9.69,3.32-15.04,.04-63.38-38.76-126.88-77.33-190.27-116.08-2.58-1.58-4.44-4.35-6.64-6.56v-4.79Zm220.42,2.76c26.23,16.7,52.03,33.07,77.75,49.58,2.13,1.36,3.38,.44,4.96-.52,25.88-15.76,51.76-31.5,77.63-47.26,.86-.52,1.64-1.15,2.68-1.89-.78-.55-1.29-.96-1.85-1.29-26.54-15.93-53.11-31.82-79.6-47.85-2.22-1.34-3.56-.66-5.31,.45-24.42,15.59-48.86,31.14-73.29,46.71-.88,.56-1.72,1.19-2.98,2.07Zm-195.11-.09c.81,.58,1.33,.99,1.89,1.33,26.33,16.03,52.68,32.02,78.95,48.15,2.21,1.36,3.54,.71,5.29-.41,15-9.59,30.03-19.13,45.06-28.7,10.53-6.7,21.06-13.41,31.77-20.24-.81-.63-1.38-1.17-2.04-1.59-24.88-15.85-49.78-31.67-74.6-47.6-2.1-1.35-3.48-.88-5.32,.23-25.95,15.62-51.94,31.19-77.91,46.78-1,.6-1.94,1.28-3.09,2.04Zm99.7,60.66c.85,.64,1.25,.99,1.7,1.27,25.09,15.28,50.21,30.51,75.24,45.89,2.17,1.33,3.52,.79,5.33-.31,24.5-14.97,49.04-29.88,73.56-44.82,.9-.55,1.75-1.17,2.8-1.87-.76-.6-1.34-1.14-1.99-1.56-25.01-15.93-50.05-31.79-74.98-47.83-2.32-1.49-3.6-.51-5.27,.55-22.99,14.64-45.99,29.27-68.98,43.9-2.34,1.49-4.67,3.01-7.41,4.78ZM281.99,68.03c-.89-.71-1.27-1.07-1.71-1.35-24.56-15.63-49.15-31.22-73.65-46.95-2.06-1.32-3.3-.7-4.94,.34-23.99,15.3-47.99,30.57-71.99,45.86-.86,.55-1.67,1.17-2.8,1.98,.89,.66,1.47,1.16,2.11,1.56,24.34,15.49,48.7,30.94,72.97,46.53,2.18,1.4,3.51,.8,5.28-.34,17.14-10.96,34.31-21.86,51.47-32.79,7.61-4.85,15.21-9.7,23.26-14.83ZM126.03,101.37c.61,.5,.98,.86,1.41,1.13,24.89,15.86,49.77,31.74,74.75,47.46,1.15,.72,3.62,.53,4.84-.24,24.52-15.44,48.96-31.03,73.4-46.61,.81-.52,1.51-1.21,2.46-1.99-2.66-1.62-5.07-2.82-7.15-4.44-2.66-2.07-4.75-1.58-7.44,.15-18.99,12.25-38.14,24.26-57.12,36.53-4.75,3.08-8.86,3.05-13.6-.02-17.07-11.06-34.29-21.89-51.45-32.81q-9.85-6.26-19.52,.2c-.11,.07-.18,.19-.57,.62Z"/></g></g></svg>