<?xml version="1.0" encoding="UTF-8"?><svg xmlns="http://www.w3.org/2000/svg" viewBox="0 0 383.36 383.24"><g id="a"/><g id="b"><g id="c"><path d="M0,145.95c1.89-2.66,4.25-4.19,7.63-3.04,3.42,1.16,3.62,3.98,3.61,7-.02,41.41,.07,82.82-.13,124.23-.02,5.06,1.85,8.21,5.85,10.74,8.57,5.42,18.04,8.69,27.85,10.41,13.72,2.4,27.62,3.82,41.45,5.63,1.2,.16,2.43,.02,3.68,.02,.74-6.17,1.2-12.13,2.22-17.99,2.53-14.55,7.4-28.2,16.72-39.91,9.15-11.49,20.74-17.77,35.88-17.41,16.46,.39,32.93,.09,49.4,.09h4.7v-49.46c-3,3.42-5.59,6.35-8.15,9.3-3.84,4.43-7.54,8.99-11.55,13.26-2.15,2.29-3.03,4.69-2.72,7.73,.14,1.35,.09,2.75-.06,4.11-.39,3.39-2.47,5.19-5.74,5.11-3.29-.07-5.29-1.91-5.33-5.44-.11-10.23-.06-20.46-.06-30.68,0-2.25-.07-4.49,.05-6.73,.18-3.53,2.05-5.39,5.31-5.49,3.41-.1,5.6,1.8,5.8,5.44,.19,3.57,.04,7.17,.84,11.11,15.92-18.41,31.83-36.82,47.89-55.4-11.15-9.17-12.26-21.58-11.48-35.11-1.17,.6-2.11,1.01-2.98,1.53-11.87,7.1-23.71,14.27-35.64,21.28-1.61,.94-4.06,2-5.43,1.41-1.86-.8-3.94-2.99-4.27-4.88-.27-1.6,1.36-4.31,2.92-5.31,8.71-5.57,17.57-10.94,26.58-16,3.39-1.9,4.5-4.08,4.4-7.9-.28-10.46-.1-20.94-.1-31.38-.4-.08-.69-.25-.85-.16-20.97,11.56-44.08,14.64-67.36,16.54-27.84,2.27-55.59,1.17-83.07-4.23-12.61-2.48-24.9-5.96-36.62-12.88,0,1.81,0,3.12,0,4.42,0,18.71-.02,37.42,.02,56.13,0,3.02-.19,5.84-3.61,7-3.38,1.15-5.74-.38-7.64-3.03V31.42c3.24-8.17,9.72-12.97,17.3-16.62C31.06,8.19,45.82,5.19,60.77,3.03c28.33-4.1,56.69-3.96,85.04-.06,14.84,2.05,29.62,4.48,43.48,10.43,4.98,2.14,9.74,5.03,14.13,8.23,4.88,3.56,7.07,8.72,7.01,14.96-.16,14.84-.05,29.68-.05,45.27,2.12-1.32,3.81-2.41,5.54-3.45,3.3-1.99,6.5-4.21,9.96-5.88,6.6-3.19,12.7-1.92,17.58,3.56,6.26,7.03,7.98,15.7,7.91,24.71-.09,10.26-3.09,19.27-10.54,27.09-10.15,10.64-19.39,22.14-28.96,33.33-.74,.87-1.41,2.15-1.42,3.24-.08,20.2-.06,40.4-.06,61.27h4.82c38.43,0,76.86,.2,115.29-.09,17.3-.13,28.8,8.7,37.77,22.21,1.91,2.87,1.11,6.04-1.59,7.86-2.64,1.79-5.34,1.29-7.52-1.44-.86-1.07-1.58-2.24-2.41-3.34-6.91-9.23-15.54-14.21-27.66-14.13-52.28,.34-104.56,.15-156.84,.15h-5.25c17.77,19.56,23.71,42.73,23.67,67.61-.04,24.79-5.5,48.02-23.86,67.46h4.77c53.03,0,106.06-.08,159.08,.08,9.02,.03,16.25-3.16,22.27-9.55,8.63-9.17,13.33-20.35,16.2-32.38,3.69-15.49,3.93-31.08,1.08-46.77-.38-2.08-.03-4.98,1.2-6.54,2.81-3.56,8.56-1.83,9.42,2.8,5.15,27.67,3.03,54.42-11.22,79.31-7.01,12.24-17,21.03-31.16,24.29H135.52c-13.55-3.09-23.54-11.15-30.47-22.85-3.59-6.07-6.87-12.53-8.94-19.23-2.84-9.21-4.41-18.82-6.63-28.74-1.02-.06-2.74-.17-4.45-.28-18.46-1.15-36.77-3.34-54.44-9.05-12.36-3.99-24.7-8.36-30.6-21.64V145.95Zm114.77,108.63c4.03-.41,8.22-1.43,12.33-1.15,13.16,.89,20.86,9.2,25.58,20.58,6.15,14.82,6.61,30.31,4.06,45.94-1.35,8.3-3.56,16.39-9.45,22.8-7.14,7.79-17.84,6.89-23.49-2-1.71-2.7-3.39-5.72-3.93-8.8-1.51-8.55-2.62-17.19-3.48-25.83-.42-4.22,1.9-6.56,5.38-6.6,3.45-.04,5.42,2.25,5.77,6.36,.56,6.57,1.17,13.15,2,19.69,.29,2.31,.96,4.71,2.07,6.74,.94,1.72,2.65,3.98,4.2,4.13,1.5,.14,3.64-1.82,4.74-3.39,1.47-2.09,2.41-4.63,3.22-7.1,3.34-10.26,3.67-20.81,2.55-31.44-.79-7.5-2.46-14.77-6.59-21.22-6.61-10.29-18.5-11.75-27.53-3.45-4.88,4.48-7.57,10.23-8.84,16.55-3.67,18.27-2.05,36.21,4.12,53.74,3.27,9.28,7.99,17.74,15.4,24.41,11.45,10.32,26.58,10.26,37.1-1.01,4.73-5.07,8.7-11.35,11.35-17.77,8.94-21.69,10.56-44.22,5.13-67.08-2.97-12.52-8.01-24.13-17.42-33.35-4.37-4.28-9.41-7.4-15.63-8.12-11.15-1.29-23.11,6.07-28.63,17.38ZM63.82,31.68l.08,1.03c1.31,.33,2.61,.84,3.94,.97,11.77,1.17,23.52,2.91,35.32,3.23,15.71,.43,31.45-.34,46.71-4.8,3.31-.97,6.58-2.38,9.55-4.12,2.86-1.68,2.93-3.9,.39-6.06-1.86-1.59-4.02-3.12-6.31-3.88-5.42-1.79-10.92-3.55-16.53-4.51-19.32-3.28-38.78-2.78-58.21-1.28-16.44,1.27-32.74,3.58-48.29,9.32-5.1,1.88-10.11,4.31-14.66,7.26-6.15,3.98-6.04,7.56-.2,11.83,2.2,1.61,4.58,3.04,7.06,4.18,16.19,7.45,33.52,10.23,51.05,12.01,21.29,2.16,42.61,2.08,63.88-.06,16.03-1.61,31.92-4.19,46.86-10.55,4.4-1.87,8.59-4.54,12.39-7.47,3.24-2.5,3.13-5.17,.13-7.95-6.94-6.44-15.71-9.05-24.71-11.76,.95,11.91-1.84,16.5-12.58,21.33-1.36,.61-2.74,1.3-4.18,1.57-10.01,1.89-19.98,4.42-30.08,5.33-18.64,1.68-37.4,2.07-55.96-1.09-5.42-.92-10.99-2.7-15.76-5.38-8.26-4.64-7.57-13.54,.91-17.72,1.67-.82,3.42-1.6,5.23-1.99,14.82-3.22,29.86-4.14,44.98-3.93,3.03,.04,4.88,1.94,5.2,4.9,.35,3.18-1.35,5.2-4.39,6.04-.82,.23-1.73,.19-2.6,.23-7.1,.29-14.22,.34-21.3,.91-5.99,.49-11.94,1.58-17.9,2.4ZM223.71,101.25c1.56,4.71,2.77,10.05,5.07,14.87,1.99,4.17,5.87,3.96,7.85-.3,4.63-9.98,5.06-20.18-.15-30.14-.8-1.53-2.98-3.42-4.33-3.29-1.65,.17-3.91,2.01-4.49,3.64-1.63,4.63-2.54,9.52-3.96,15.22Z"/><path d="M248.97,268.81c-14.58,0-29.16,.02-43.73-.01-4.07,0-6.59-2.17-6.62-5.49-.03-3.29,2.54-5.54,6.54-5.71,.87-.04,1.74,0,2.62,0,12.33,0,24.67,0,37,0,15.33,0,30.65,0,45.98,0,1,0,2-.05,2.99,.03,3.72,.31,5.96,2.65,5.79,5.97-.17,3.16-2.39,5.16-6.07,5.2-6.35,.07-12.71,.02-19.06,.02-8.47,0-16.94,0-25.42,0Z"/><path d="M267.57,351.11c-12.21,0-24.42,.02-36.63-.01-4.33-.01-6.94-2.2-6.89-5.63,.05-3.4,2.69-5.57,7.03-5.57,24.3-.02,48.59,0,72.89-.02,3.34,0,5.96,1.08,6.7,4.61,.58,2.77-.61,4.97-3.19,6.08-1.2,.51-2.67,.52-4.01,.52-11.96,.04-23.92,.02-35.88,.02Z"/><path d="M312.56,299.5c-10.46,0-20.93,.02-31.39,0-4.37-.01-6.96-2.11-6.99-5.52-.03-3.41,2.62-5.67,6.91-5.68,21.05-.03,42.11-.03,63.16,0,4.42,0,6.9,2.08,6.93,5.6,.03,3.52-2.44,5.59-6.84,5.61-10.59,.03-21.18,.01-31.77,.01Z"/><path d="M34.36,147.2c0-18.58-.03-37.17,.05-55.75,0-1.68,.13-3.82,1.12-4.9,1.17-1.29,3.44-2.42,5.06-2.21,1.61,.21,3.39,1.9,4.37,3.41,.78,1.2,.61,3.11,.61,4.71,.03,36.67,.02,73.34,.02,110,0,.87,.05,1.75-.03,2.62-.32,3.45-2.68,5.76-5.76,5.69-3.14-.08-5.35-2.37-5.4-5.94-.09-7.48-.03-14.97-.04-22.45,0-11.72,0-23.45,0-35.17Z"/><path d="M65.1,227.32c0-15.83,0-31.65,0-47.48,0-1.12-.08-2.26,.08-3.36,.45-3,2.35-4.72,5.28-4.87,2.78-.15,4.77,1.37,5.56,4.08,.34,1.16,.3,2.46,.3,3.7,.01,31.9,.01,63.8,0,95.7,0,1,.09,2.02-.1,2.98-.63,3.05-2.45,4.94-5.68,4.84-3.19-.1-4.99-1.98-5.39-5.13-.13-.98-.05-1.99-.05-2.99,0-15.83,0-31.65,0-47.48Z"/><path d="M65.11,132.74c0-4.98-.05-9.97,.02-14.95,.05-3.88,2.11-6.21,5.39-6.3,3.43-.1,5.77,2.32,5.8,6.31,.07,9.96,.07,19.93,0,29.9-.03,3.94-2.49,6.5-5.81,6.37-3.2-.12-5.33-2.57-5.38-6.38-.06-4.98-.02-9.97-.02-14.95Z"/></g></g></svg>