<?xml version="1.0" encoding="UTF-8"?><svg xmlns="http://www.w3.org/2000/svg" viewBox="0 0 215.28 166.44"><g id="a"/><g id="b"><g id="c"><g><path d="M5.19,78.67l-.19,1.15,1.99,.33-.11,.65-4.91-.82,.27-1.62c.09-.55,.29-.96,.59-1.21,.3-.26,.69-.34,1.17-.26,.31,.05,.56,.18,.76,.38s.33,.46,.39,.77l2.28-.8h.04l-.12,.7-2.16,.73Zm-.72,1.06l.17-1c.05-.32,.01-.59-.12-.81s-.34-.35-.62-.4c-.3-.05-.55,0-.74,.15-.19,.15-.32,.4-.38,.74l-.17,.99,1.86,.31Z"/><path d="M2.42,70.97l.19-.74,.75,1.14-.13,.49-.81-.89Zm4.16,.07l-.54,2.09,1.71,.44,.62-2.43,.52,.13-.79,3.06-4.82-1.24,.78-3.03,.52,.13-.61,2.39,1.55,.4,.54-2.09,.52,.13Z"/><path d="M11.06,64.72l-.22,.62-4.45,1.08,3.62,1.28-.22,.62-4.69-1.66,.22-.62,4.47-1.09-3.63-1.28,.22-.62,4.69,1.66Z"/><path d="M11.84,57.1c.44,.2,.8,.46,1.06,.76s.42,.63,.46,.98c.05,.35-.01,.71-.18,1.08-.16,.36-.4,.63-.7,.83-.3,.19-.65,.29-1.04,.3-.39,0-.8-.09-1.23-.28l-.33-.15c-.43-.2-.78-.45-1.05-.76-.26-.3-.42-.63-.47-.99-.05-.36,0-.71,.17-1.07,.17-.36,.4-.64,.7-.84,.3-.2,.65-.29,1.05-.29,.4,0,.82,.11,1.26,.31l.29,.13Zm-.56,.46c-.54-.25-1-.33-1.38-.24-.39,.08-.67,.32-.85,.71-.17,.38-.17,.74,.02,1.09,.19,.35,.53,.64,1.04,.88l.33,.15c.52,.24,.98,.32,1.38,.24,.4-.08,.68-.31,.86-.7,.18-.38,.17-.75,0-1.09-.18-.34-.54-.63-1.06-.88l-.34-.15Z"/><path d="M15.48,53.38l-2.87-3.26,.35-.62,3.42,4.06-.29,.5-5.24-.85,.35-.62,4.27,.79Z"/><path d="M18.54,45.84l-1.21,1.79,1.46,.99,1.4-2.08,.44,.3-1.77,2.62-4.12-2.79,1.75-2.59,.44,.3-1.38,2.05,1.33,.9,1.21-1.79,.44,.3Z"/><path d="M22.03,41.67l-.72,.92,1.58,1.25-.41,.52-3.9-3.08,1.02-1.29c.35-.44,.71-.7,1.1-.78,.39-.08,.77,.03,1.16,.33,.24,.19,.4,.43,.48,.7,.08,.27,.07,.56-.03,.87l2.38,.39,.03,.03-.44,.55-2.25-.4Zm-1.15,.58l.62-.79c.2-.26,.3-.51,.28-.77s-.13-.47-.35-.65c-.24-.19-.48-.26-.73-.22-.24,.04-.47,.2-.69,.47l-.62,.79,1.48,1.17Z"/><path d="M29.78,32.67l-1.52,1.53,1.25,1.25,1.77-1.77,.38,.38-2.23,2.24-3.52-3.52,2.21-2.21,.38,.38-1.75,1.75,1.13,1.13,1.52-1.53,.38,.38Z"/><path d="M33.66,26.27l-1.21,1.05,2.92,3.35-.49,.43-2.92-3.35-1.2,1.05-.35-.4,2.9-2.53,.35,.4Z"/><path d="M42.41,22.66l-.96,.67,1.15,1.65-.54,.38-2.85-4.08,1.35-.95c.46-.32,.89-.46,1.28-.43,.39,.04,.73,.25,1.01,.65,.18,.25,.26,.52,.26,.81,0,.28-.1,.56-.28,.82l2.17,1.06,.02,.03-.58,.4-2.04-1.03Zm-1.27,.23l.83-.58c.27-.19,.43-.4,.49-.65,.06-.25,.01-.49-.15-.72-.18-.25-.39-.39-.63-.42-.24-.03-.51,.05-.79,.25l-.82,.58,1.08,1.55Z"/><path d="M48.75,18.23l-1.84,1.12,.92,1.51,2.14-1.3,.28,.46-2.7,1.64-2.59-4.25,2.67-1.63,.28,.46-2.11,1.29,.83,1.37,1.84-1.12,.28,.46Zm-2.93-2.96l.65-.4-.26,1.33-.44,.26,.04-1.2Z"/><path d="M52.62,16.46l.91,1.72-.58,.31-2.32-4.4,1.62-.86c.48-.25,.92-.33,1.33-.23,.4,.1,.71,.36,.92,.76,.23,.43,.27,.83,.12,1.2-.15,.37-.47,.69-.97,.95l-1.04,.55Zm-.25-.47l1.04-.55c.31-.16,.51-.36,.6-.6,.09-.23,.06-.49-.09-.76-.14-.26-.33-.43-.58-.5-.25-.07-.52-.03-.81,.11l-1.08,.57,.91,1.73Z"/><path d="M60.48,13.33l-1.9,.86,.11,1.38-.62,.28-.32-5.32,.52-.24,3.79,3.75-.61,.28-.97-.99Zm-1.94,.29l1.54-.7-1.73-1.77,.19,2.47Z"/><path d="M65.81,10.38l-1.09,.42,.72,1.88-.62,.24-1.77-4.65,1.54-.59c.52-.2,.97-.23,1.35-.1,.37,.13,.65,.42,.82,.88,.11,.29,.13,.57,.05,.85-.07,.27-.23,.52-.47,.73l1.84,1.56v.04l-.64,.25-1.73-1.5Zm-1.28-.08l.94-.36c.3-.12,.52-.29,.64-.51,.12-.23,.13-.47,.03-.74-.11-.29-.28-.48-.51-.56-.23-.09-.51-.07-.83,.05l-.94,.36,.67,1.77Z"/><path d="M73.04,7.62l-2.06,.65,.53,1.68,2.39-.75,.16,.51-3.02,.95-1.5-4.75,2.98-.94,.16,.51-2.36,.74,.48,1.53,2.06-.65,.16,.51Z"/><path d="M78.33,6.46l-1.13,.29,.5,1.95-.64,.16-1.22-4.82,1.6-.4c.54-.14,.99-.12,1.35,.05,.35,.17,.59,.5,.71,.97,.08,.3,.06,.58-.04,.85-.11,.26-.29,.49-.55,.67l1.65,1.76v.04l-.67,.17-1.54-1.69Zm-1.27-.23l.98-.25c.32-.08,.55-.23,.69-.44s.18-.45,.11-.73c-.08-.3-.22-.5-.44-.62s-.5-.13-.83-.05l-.97,.25,.46,1.83Z"/><path d="M91.26,6l-.65,.1-3.06-3.41,.58,3.79-.65,.1-.76-4.92,.65-.1,3.07,3.43-.58-3.81,.65-.1,.76,4.92Z"/><path d="M94.31,2.04l-.38-.21c.18-.32,.26-.64,.23-.96l-.05-.49,.62-.07,.05,.44c.02,.23-.01,.46-.1,.7-.09,.24-.21,.43-.37,.59Z"/><path d="M100.69,3.8l-2.08,.13-.38,1.33-.68,.04,1.58-5.09,.57-.04,2.22,4.85-.67,.04-.56-1.27Zm-1.92-.42l1.69-.11-.99-2.27-.69,2.38Z"/><path d="M111.15,0l.66,.02-.09,3.52c-.01,.48-.16,.84-.46,1.11-.29,.26-.68,.39-1.15,.38-.49-.01-.88-.15-1.15-.41-.27-.26-.4-.62-.39-1.07l.66,.02c0,.28,.07,.51,.22,.67,.15,.16,.38,.25,.67,.26,.27,0,.49-.07,.66-.24,.17-.17,.26-.4,.27-.71l.09-3.53Z"/><path d="M117.96,4.08l-2.08-.17-.57,1.26-.67-.05,2.29-4.81,.57,.05,1.5,5.11-.67-.05-.37-1.34Zm-1.84-.68l1.69,.13-.66-2.39-1.03,2.25Z"/><path d="M123.49,.98l1.03,4.25,2.19-3.78,.84,.12-.71,4.93-.65-.09,.28-1.92,.36-2.06-2.2,3.75-.5-.07-1.04-4.21-.24,2.07-.28,1.92-.65-.09,.71-4.93,.84,.12Z"/><path d="M133.2,6.43l-2.04-.44-.73,1.18-.66-.14,2.9-4.47,.56,.12,.82,5.26-.66-.14-.19-1.37Zm-1.73-.92l1.65,.35-.34-2.45-1.31,2.1Z"/><path d="M137.62,8.86l-.63-.17,1.27-4.81,.63,.17-1.27,4.81Z"/><path d="M143.07,8.14c-.49-.32-.82-.64-.99-.94-.17-.3-.21-.62-.1-.95,.12-.37,.37-.63,.74-.79,.38-.15,.8-.15,1.28,0,.33,.1,.6,.26,.81,.46,.22,.21,.36,.44,.43,.71,.07,.27,.06,.53-.02,.79l-.63-.2c.09-.29,.07-.54-.06-.76-.13-.22-.36-.39-.69-.49-.31-.1-.57-.11-.79-.02-.22,.08-.36,.24-.44,.48-.06,.19-.03,.38,.09,.57,.12,.19,.36,.4,.72,.63,.36,.24,.63,.46,.81,.66,.18,.2,.3,.41,.35,.62,.05,.21,.04,.44-.04,.68-.12,.38-.37,.65-.74,.78-.37,.14-.81,.12-1.31-.03-.33-.1-.61-.26-.85-.48-.24-.21-.41-.46-.49-.72-.08-.27-.08-.54,0-.81l.63,.2c-.09,.29-.06,.55,.1,.78s.42,.41,.77,.52c.33,.1,.6,.12,.82,.04,.22-.08,.37-.23,.44-.47s.05-.44-.07-.62c-.12-.18-.38-.4-.77-.66Z"/><path d="M154.42,12.31l-1.99-.84-.69,1.62,2.31,.98-.21,.49-2.91-1.23,1.94-4.58,2.88,1.22-.21,.49-2.28-.97-.63,1.48,1.99,.84-.21,.49Zm.7-4.1l.7,.3-1.24,.57-.47-.2,1-.67Z"/><path d="M161.72,13.42l-1.43-.71-1.97,3.98-.58-.29,1.97-3.98-1.43-.71,.24-.48,3.45,1.71-.24,.48Z"/><path d="M165.99,18.25l-1.87-1.07-.88,1.53,2.17,1.25-.27,.46-2.74-1.57,2.48-4.32,2.71,1.56-.27,.47-2.14-1.23-.8,1.39,1.87,1.07-.27,.47Zm1.18-3.99l.66,.38-1.29,.42-.44-.25,1.07-.54Z"/><path d="M174.17,24.86l-1.69-1.22-1.14,.78-.55-.4,4.45-2.92,.47,.34-1.37,5.15-.55-.39,.38-1.33Zm-1.22-1.54l1.37,.99,.67-2.38-2.05,1.39Z"/><path d="M182.52,26.81l-2.17,2.6c-.3,.36-.66,.56-1.08,.6s-.83-.08-1.24-.38l-.14-.11c-.42-.35-.66-.74-.72-1.17s.07-.85,.4-1.25l2.17-2.61,.5,.42-2.16,2.59c-.23,.28-.33,.55-.31,.83,.03,.28,.18,.54,.46,.77,.29,.24,.57,.34,.85,.32,.28-.03,.53-.18,.76-.45l2.16-2.59,.51,.42Z"/><path d="M184.39,32.27c-.29-.51-.45-.93-.47-1.28-.02-.35,.09-.65,.33-.9,.27-.28,.61-.41,1.01-.38,.4,.03,.79,.22,1.15,.57,.25,.24,.42,.49,.52,.78,.1,.28,.13,.56,.07,.83-.05,.27-.18,.5-.37,.7l-.48-.46c.21-.22,.3-.46,.29-.71-.02-.26-.15-.51-.41-.75-.23-.22-.46-.35-.69-.37-.23-.02-.43,.06-.61,.24-.14,.15-.2,.33-.17,.55s.15,.52,.37,.89c.22,.37,.36,.69,.43,.95,.07,.26,.08,.5,.04,.71-.05,.21-.16,.41-.33,.59-.28,.29-.62,.42-1.01,.37s-.78-.25-1.16-.61c-.25-.24-.43-.51-.55-.8-.12-.3-.16-.59-.12-.86,.04-.28,.16-.52,.36-.73l.48,.46c-.21,.22-.29,.46-.25,.74,.04,.28,.19,.55,.46,.81,.25,.24,.49,.37,.72,.4,.23,.03,.43-.05,.6-.22s.24-.37,.21-.59-.16-.52-.4-.93Z"/><path d="M188.98,36.98c-.26-.53-.39-.96-.38-1.31,0-.35,.13-.64,.39-.87,.29-.26,.63-.37,1.04-.31s.77,.28,1.11,.65c.23,.25,.38,.52,.47,.81s.09,.56,.01,.83c-.07,.26-.21,.49-.42,.67l-.44-.49c.22-.2,.33-.43,.33-.69,0-.26-.12-.52-.35-.77-.22-.24-.44-.38-.67-.42-.23-.04-.43,.03-.62,.2-.15,.14-.22,.32-.21,.54,.01,.22,.11,.53,.3,.91s.31,.71,.37,.98c.05,.27,.05,.51-.01,.71s-.19,.4-.38,.57c-.3,.27-.64,.37-1.03,.3-.39-.07-.76-.3-1.12-.69-.23-.25-.4-.53-.5-.84-.1-.31-.12-.6-.06-.87,.06-.27,.2-.51,.41-.7l.44,.49c-.22,.2-.32,.44-.3,.72,.02,.28,.15,.56,.4,.84,.23,.26,.46,.41,.69,.45,.23,.04,.43-.02,.61-.18,.18-.16,.26-.35,.25-.57-.02-.22-.13-.53-.33-.95Z"/><path d="M191.02,42.8l-.41-.51,3.88-3.12,.41,.51-3.88,3.12Z"/><path d="M198.15,48.95c-.17-.56-.22-1.01-.16-1.36,.06-.34,.24-.61,.53-.79,.33-.21,.69-.25,1.07-.13s.71,.4,.98,.82c.18,.29,.29,.58,.32,.88,.03,.3,0,.57-.13,.82-.12,.25-.29,.45-.52,.6l-.35-.56c.25-.16,.4-.37,.45-.62,.04-.25-.03-.53-.22-.82-.17-.27-.37-.45-.59-.52s-.43-.05-.65,.09c-.17,.11-.27,.27-.3,.49-.03,.22,.02,.54,.15,.95,.12,.41,.19,.75,.2,1.03,0,.27-.04,.51-.13,.7s-.25,.36-.46,.5c-.34,.22-.7,.26-1.07,.12-.37-.13-.7-.42-.98-.87-.18-.29-.3-.59-.35-.91s-.02-.61,.09-.87c.11-.26,.28-.46,.52-.62l.35,.56c-.25,.16-.39,.38-.42,.66s.06,.58,.26,.89c.19,.29,.39,.48,.61,.56,.22,.08,.43,.05,.64-.08,.21-.13,.32-.3,.34-.52,.02-.22-.04-.55-.17-1Z"/><path d="M199.16,55.03l-.32-.58,4.36-2.4,.32,.57-4.36,2.4Z"/><path d="M205.68,56.82l-3.03,3.15,4.37-.19,.35,.78-4.53,2.05-.27-.6,1.77-.8,1.93-.81-4.35,.17-.21-.46,2.99-3.14-1.87,.92-1.77,.8-.27-.6,4.53-2.05,.35,.77Z"/><path d="M206.11,65.8l-1.84,.63-.21-.62,4.71-1.61,.59,1.74c.17,.52,.18,.96,.02,1.35-.16,.38-.46,.65-.9,.79-.46,.16-.86,.13-1.2-.07-.34-.2-.61-.57-.79-1.1l-.38-1.11Zm.51-.17l.38,1.12c.11,.33,.28,.56,.5,.68,.22,.12,.47,.13,.77,.03,.28-.1,.48-.26,.58-.5s.11-.51,.01-.82l-.39-1.15-1.85,.63Z"/><path d="M206.75,72.71l.57,2.29-.52,.13-.73-2.93,4.83-1.21,.16,.64-4.31,1.08Z"/><path d="M210.12,80.49l-.35-2.13-1.74,.29,.41,2.47-.53,.09-.51-3.12,4.91-.81,.51,3.09-.53,.09-.4-2.44-1.58,.26,.35,2.13-.53,.09Z"/></g><g><path d="M29.97,137.69v28.75h-6.83v-18.97l-6.52,9.45h-3.41l-6.37-9.37v18.89H0v-28.75H7.89l7.09,10.62,7.09-10.62h7.89Z"/><path d="M55.23,160.98v5.46h-19.2v-28.75h19.01v5.46h-12.18v6.11h10.28v5.46h-10.28v6.26h12.37Z"/><path d="M82.57,141.35c2.67,2.44,4,6.03,4,10.75s-1.33,8.33-3.98,10.74c-2.66,2.4-6.63,3.6-11.91,3.6h-10.13v-28.75h10.13c5.26,0,9.22,1.22,11.89,3.66Zm-5.1,4.15c-1.47-1.37-3.73-2.05-6.79-2.05h-3.3v17.22h3.3c3.11,0,5.39-.69,6.83-2.07,1.44-1.38,2.16-3.58,2.16-6.62s-.73-5.12-2.2-6.49Z"/><path d="M90.93,137.69h6.83v28.75h-6.83v-28.75Z"/><path d="M121.88,160.6h-11.12l-2.01,5.84h-6.83l10.05-29.1h8.65l10.09,29.1h-6.83l-2.01-5.84Zm-1.97-5.84l-3.6-10.47-3.57,10.47h7.17Z"/><path d="M156.9,154.3c.91,1.11,1.37,2.48,1.37,4.1,0,2.71-.87,4.72-2.62,6.05-1.75,1.33-4.65,1.99-8.72,1.99h-12.03v-28.75h12.03c3.69,0,6.32,.66,7.87,1.97s2.33,3.22,2.33,5.73c0,1.57-.32,2.88-.95,3.95-.63,1.06-1.66,1.9-3.07,2.5,1.62,.53,2.88,1.35,3.79,2.47Zm-15.17-4.97h5.2c2.17,0,3.27-1.04,3.3-3.11,0-1.11-.26-1.92-.78-2.41-.52-.49-1.36-.74-2.52-.74h-5.2v6.26Zm8.52,6.14c-.75-.51-1.85-.76-3.32-.76h-5.2v6.33h5.2c1.62,0,2.76-.25,3.43-.76s1.01-1.31,1.01-2.43-.37-1.88-1.12-2.39Z"/><path d="M181.25,160.6h-11.12l-2.01,5.84h-6.83l10.05-29.1h8.65l10.09,29.1h-6.83l-2.01-5.84Zm-1.97-5.84l-3.6-10.47-3.57,10.47h7.17Z"/><path d="M215.28,143.53h-7.85v22.91h-6.83v-22.91h-7.85v-5.84h22.53v5.84Z"/></g><path d="M140.83,72.22c-1.3-.47-2.62-1.3-3.56-2.3-4.16-4.43-7.86-9.34-12.33-13.41-6.09-5.53-13.37-6.52-21.05-3.83,3.6,1.48,7.15,2.58,10.31,4.36,2.72,1.54,3.7,4.03,3.35,7.6-.43,4.45-3.86,5.88-6.33,8.29-5.09,4.96-5.24,4.97-10.44,0-1.25-1.19-2.67-3.26-2.48-4.72,1.05-8.19,1.21-8.17-5.98-12.51-1.39-.84-2.84-1.59-4.17-2.51-2.1-1.46-3.45-.27-4.82,1.17-1.66,1.74-.5,2.86,.78,4.03,1.11,1.01,2.09,2.17,3.26,3.09,2.28,1.8,2.34,3.93,.48,5.76-1.66,1.63-3.87,2.31-6.02,.43-1.5-1.31-2.88-2.84-4.58-3.83-1-.58-2.76-.78-3.72-.28-1.76,.92-2.16,2.58-.73,4.38,1.71,2.14,3.46,4.28,4.95,6.58,1.8,2.77,3.96,3.81,7.26,2.81,3.83-1.16,7.43-1.35,10.32,2.54,1.45,1.96,1.62,2.97-.25,4.56-6.26,5.34-12.39,10.84-18.64,16.2-4.68,4.02-4.75,5.36-.11,9.3,.38,.32,.77,.64,1.14,.96,4.27,3.65,5.64,3.59,9.79-.39,5.67-5.44,11.43-10.79,16.99-16.35,2.07-2.07,3.47-2.06,5.53,.01,5.72,5.75,11.6,11.33,17.47,16.92,1.16,1.1,2.43,2.24,3.87,2.86,2.89,1.24,5.5,.25,7.27-2.18,1.78-2.45,1.32-4.96-.83-7.08-.8-.79-1.68-1.49-2.53-2.22-7.36-6.33-14.72-12.66-22.66-19.48,5.47-3.29,7.73-10.63,15.78-9.04,2.97,.59,5.03,1.13,4.43,4.87-.16,1.03,.78,2.74,1.72,3.28,.95,.55,2.75,.46,3.75-.11,1.7-.96,3.2-2.39,4.56-3.84,2.27-2.43,1.42-4.78-1.77-5.94Zm-7.16,34.15v-.02l.02,.02c1.21,.01,2.18,.99,2.18,2.2s-.99,2.2-2.2,2.2c-.02,0-.04,0-.07,0-.01,0-.03,.01-.04,.02-.04,.01-.11,0-.18-.04-1.08-.14-1.92-1.06-1.92-2.17,0-1.22,.98-2.2,2.2-2.2Z"/></g></g></svg>